<svg aria-hidden="true" style="position:absolute;width:0;height:0" xmlns="http://www.w3.org/2000/svg" overflow="hidden"><defs><symbol id="facebook" viewBox="0 0 32 32"><path d="M21.33 5.31h2.92V.23C23.75.15 22.01 0 19.99 0c-4.2 0-7.1 2.65-7.1 7.52V12H8.26v5.69h4.65V32h5.7V17.69h4.46l.7-5.69H18.6V8.08c0-1.64.45-2.77 2.74-2.77z"/></symbol><symbol id="instagram" viewBox="0 0 32 32"><path d="M31.97 9.4a11.7 11.7 0 0 0-.74-3.87 7.8 7.8 0 0 0-1.85-2.84A7.87 7.87 0 0 0 26.54.84C25.52.45 24.36.17 22.66.1 20.95.02 20.4 0 16.06 0s-4.89.02-6.6.1C7.76.16 6.6.43 5.58.83a7.8 7.8 0 0 0-2.83 1.85A7.87 7.87 0 0 0 .9 5.52C.5 6.54.23 7.7.16 9.4c-.08 1.71-.1 2.26-.1 6.6s.02 4.9.1 6.6c.07 1.7.34 2.87.73 3.88a7.9 7.9 0 0 0 1.85 2.84c.8.81 1.77 1.44 2.84 1.84 1.02.4 2.18.67 3.88.75 1.7.07 2.25.09 6.6.09s4.88-.02 6.59-.1a11.7 11.7 0 0 0 3.88-.74 8.18 8.18 0 0 0 4.68-4.68c.4-1.02.67-2.18.75-3.88.07-1.7.1-2.25.1-6.6s-.02-4.89-.09-6.6zm-2.88 13.07a8.76 8.76 0 0 1-.55 2.97 5.31 5.31 0 0 1-3.04 3.04c-.56.22-1.41.48-2.97.55-1.69.07-2.2.1-6.46.1s-4.79-.02-6.47-.1a8.76 8.76 0 0 1-2.97-.55 4.93 4.93 0 0 1-1.84-1.2 4.97 4.97 0 0 1-1.19-1.83 8.81 8.81 0 0 1-.55-2.97c-.07-1.69-.1-2.2-.1-6.47s.03-4.78.1-6.46c.07-1.56.33-2.4.55-2.97.26-.7.66-1.32 1.2-1.84a4.97 4.97 0 0 1 1.84-1.19A8.81 8.81 0 0 1 9.6 3c1.69-.07 2.2-.1 6.46-.1 4.28 0 4.78.03 6.47.1 1.56.07 2.4.33 2.96.55.7.26 1.33.66 1.84 1.2.53.51.94 1.14 1.2 1.83.22.57.48 1.42.55 2.97.07 1.69.1 2.2.1 6.46s-.03 4.77-.1 6.46z"/><path d="M16.06 7.78a8.22 8.22 0 1 0 0 16.45 8.22 8.22 0 0 0 0-16.45zm0 13.55a5.33 5.33 0 1 1 0-10.66 5.33 5.33 0 0 1 0 10.67zM26.52 7.46a1.92 1.92 0 1 1-3.83 0 1.92 1.92 0 0 1 3.83 0z"/></symbol><symbol id="linkedin" viewBox="0 0 32 32"><path d="M32 32V20.26c0-5.74-1.24-10.16-7.95-10.16-3.23 0-5.39 1.77-6.27 3.45h-.1v-2.92h-6.36V32h6.63V21.42c0-2.79.52-5.48 3.97-5.48 3.4 0 3.45 3.18 3.45 5.66V32H32zM.53 10.64h6.63V32H.53V10.64zM3.84 0C1.72 0 0 1.72 0 3.84s1.72 3.88 3.84 3.88A3.88 3.88 0 0 0 7.7 3.84 3.85 3.85 0 0 0 3.84 0z"/></symbol><symbol id="logo" viewBox="0 0 39 32"><path d="m22.37 9.64-.75-.57a.57.57 0 0 0-.8.08l-10.36 11.9.16.17 2.57-2.36a.4.4 0 0 1-.24-.45.4.4 0 0 1 .4-.31.4.4 0 0 1 .37.27l3.38-3.14a.29.29 0 0 1 .36 0l.17.13a.29.29 0 0 0 .39-.05l4.42-4.96a.47.47 0 0 0 .07-.56.47.47 0 0 0-.14-.15z"/><path d="M27.24 12.99a23.1 23.1 0 0 1-7.5 3.51c-2.67.68-5.4 1.09-8.15 1.21.05.41.15.8.3 1.2 1.55 1.4 13.25-1 15.54-3.78.48-.58-.19-2.14-.19-2.14zm-13.9 5.87a.39.39 0 0 1-.38-.47.4.4 0 0 1 .3-.3c.08-.02.16 0 .23.02s.13.08.18.14.06.14.06.22a.39.39 0 0 1-.11.28.38.38 0 0 1-.28.1zM2.29 12.17l.09-.4 1.48.34c.13.23.2.47.23.73a2.46 2.46 0 0 1-.55 1.8c-.23.27-.54.47-.88.58a2.08 2.08 0 0 1-2.03-.47 1.9 1.9 0 0 1-.54-.9c-.1-.37-.1-.76 0-1.14.06-.28.17-.54.32-.79.15-.22.35-.4.57-.53l.21.32a1.63 1.63 0 0 0-.75 1.1c-.08.3-.07.6.01.9a1.6 1.6 0 0 0 1.22 1.14c.3.08.6.08.88 0a1.67 1.67 0 0 0 1.11-1.26c.1-.37.07-.75-.07-1.1l-1.3-.33zm3.23-3.6-1.33 1.78.57 1.02-.26.35-2.12-3.85.25-.34 4.3.93-.27.35-1.14-.24zm-.38-.09-2.28-.51L4 10.02l1.14-1.54zm0-3.6.35-.25 2.17 2.91 1.8-1.34.21.29-2.13 1.6-2.4-3.2zm3.6-2.38.39-.17 1.5 3.3 2.05-.92.14.33-2.42 1.1L8.74 2.5zm7.53 1.32.09.36-2.75.64-.92-3.9L15.37.3l.08.36-2.29.53.33 1.38 2-.47.1.35-2.02.47.34 1.45 2.37-.55zm3.93.14-.95-1.26h-.32l-1.08.04L17.9 4h-.42l-.13-4h1.51c.43-.04.86.08 1.2.33a1.26 1.26 0 0 1 .48.99c.01.28-.06.56-.21.8-.17.23-.4.4-.67.49l1 1.33-.46.02zm-.4-1.88a.92.92 0 0 0 .3-.75.93.93 0 0 0-.35-.73 1.39 1.39 0 0 0-.9-.23L17.78.4l.07 2 1.06-.04c.33.01.65-.09.9-.29zm3.42.82-.2 1.36-.42-.06.21-1.34L21.63 0l.44.07 1.01 2.43 1.72-2 .4.08-1.98 2.33zm5.65-.24.5.64-.22.17-.5-.66-.3.75-.25-.1.32-.75-.82.1v-.27l.81-.09-.5-.64.22-.18.44.66.31-.76.25.1-.3.77.83-.11v.28l-.78.09zm1.91 4.6a1.5 1.5 0 0 1-.24-.69l.33-.15c.03.23.1.45.22.64.13.22.3.42.5.57.2.2.46.32.74.36a.62.62 0 0 0 .64-.4.52.52 0 0 0 .02-.2 1.06 1.06 0 0 0-.13-.4c-.11-.18-.23-.35-.35-.51-.15-.2-.3-.41-.41-.63-.1-.16-.15-.35-.15-.54 0-.2.08-.41.22-.57.12-.15.29-.26.47-.32.21-.06.43-.06.64 0 .26.08.51.22.72.4.18.15.34.32.47.51.12.17.2.37.27.57l-.33.17a2.04 2.04 0 0 0-.25-.54c-.11-.14-.24-.28-.38-.39-.2-.2-.46-.32-.74-.35a.61.61 0 0 0-.54.24c-.05.05-.08.1-.1.18s-.04.13-.03.2c.01.15.06.29.14.41l.35.51c.15.2.29.4.4.62.1.16.16.34.16.53 0 .22-.08.42-.22.57a1.02 1.02 0 0 1-1.12.33 2.12 2.12 0 0 1-.73-.41 2.6 2.6 0 0 1-.57-.7zm5.75.84-.8-1.15.3-.2 1.85 2.64-.3.21-.8-1.14-2.99 2.09-.24-.35 2.98-2.1zm-1.28 4.7a2.02 2.02 0 0 1 1.5-1.37c.36-.08.73-.07 1.08.04a2.03 2.03 0 0 1 1.36 1.56c.1.36.1.74 0 1.1-.1.35-.3.66-.57.9a2.12 2.12 0 0 1-2.04.44c-.34-.1-.64-.3-.87-.57a2.16 2.16 0 0 1-.49-.99 2.2 2.2 0 0 1 .03-1.12zm.75 1.8c.2.22.44.38.71.46.29.09.59.1.88.03s.56-.2.78-.4a1.62 1.62 0 0 0 .48-1.6 1.63 1.63 0 0 0-1.13-1.26 1.7 1.7 0 0 0-.89.01c-.29.06-.56.2-.77.4-.22.19-.37.44-.45.72-.08.29-.08.6 0 .88.06.29.2.55.39.76zm-1.18 4.83 1.48-.57c0-.1.03-.2.06-.32l.28-1.03-1.21-.32.1-.4 3.87 1.03-.39 1.45c-.09.42-.32.8-.66 1.06a1.22 1.22 0 0 1-1.09.16 1.24 1.24 0 0 1-.97-1.2l-1.58.57.1-.43zm1.91.16a1.03 1.03 0 0 0 1.05.52c.13-.02.27-.07.39-.14.25-.2.42-.49.48-.8l.28-1.03-1.94-.52-.28 1.03c-.1.3-.1.64.02.94zm-3.96 3.51-.3-.22 1.72-2.25 3.19 2.42-1.66 2.18-.29-.22 1.4-1.84-1.14-.87-1.25 1.65-.29-.21 1.28-1.65-1.18-.9-1.48 1.92zm-1.34 4.56-.82.05v-.28h.82l-.44-.68.22-.14.44.68.35-.76.25.13-.4.72.82-.05v.28h-.83l.44.68-.22.14-.43-.68-.38.74-.24-.14.42-.69zM24 27.2l.7.39a1.78 1.78 0 0 1 1.13-.9c.23-.08.47-.1.7-.08.21.02.41.09.58.2a.9.9 0 0 1 .32.46c.07.23.06.47-.04.7a2.7 2.7 0 0 1-.57.78c.2.1.37.23.52.38a.76.76 0 0 1 .09 1.06 1.1 1.1 0 0 1-.64.44 1 1 0 0 1-.71 0 .72.72 0 0 1-.41-.49.77.77 0 0 1 .04-.57c.13-.26.3-.5.5-.7l-1.37-.77a2.7 2.7 0 0 0-.04.82h-.34c-.03-.34.01-.67.11-1l-.72-.4.15-.31zm1 .58 1.5.84c.2-.2.37-.42.5-.66a.72.72 0 0 0 0-.51.62.62 0 0 0-.4-.43c-.24-.08-.5-.08-.74 0a1.37 1.37 0 0 0-.89.74l.02.02zm2.14 2.28a.52.52 0 0 0 .05-.42.7.7 0 0 0-.18-.3c-.15-.12-.3-.22-.48-.31-.17.17-.32.36-.45.57a.58.58 0 0 0-.04.42.48.48 0 0 0 .25.3c.14.06.3.06.45 0 .15-.04.29-.13.38-.26h.02zm-10.11 1.55.08-4h.41l-.06 3.2 1.62-2.66h.2l1.52 2.7.06-3.18h.4l-.07 4h-.35l-1.68-2.99-1.78 2.94-.35-.01zm-1.98-4.18a1.95 1.95 0 0 1 .52 1.98c-.1.35-.29.67-.55.93-.25.25-.57.42-.92.5-.36.08-.74.07-1.1-.03a2.15 2.15 0 0 1-.97-.52 1.92 1.92 0 0 1-.53-.9 2.11 2.11 0 0 1 1.48-2.53 2.2 2.2 0 0 1 1.1.03c.36.1.7.28.97.54zm-1.95-.2c-.28.06-.54.2-.74.4-.21.22-.36.48-.43.77-.08.29-.08.59 0 .87.06.28.2.54.41.73a1.76 1.76 0 0 0 1.66.44c.28-.06.54-.2.74-.4a1.68 1.68 0 0 0 .44-1.65 1.6 1.6 0 0 0-.43-.73 1.71 1.71 0 0 0-.77-.43c-.3-.08-.6-.08-.88 0zm-4.33-2.66.16 1.57c.1.04.19.1.28.15l.93.53.63-1.1.37.2-2 3.45-1.3-.75c-.39-.2-.69-.52-.86-.91a1.25 1.25 0 0 1 .13-1.09c.13-.25.34-.45.6-.57.26-.1.55-.13.82-.06l-.17-1.68.41.26zm-.65 1.8a1.04 1.04 0 0 0-.77.88c-.02.14 0 .28.03.41.14.3.37.54.66.68l.92.53 1-1.71-.92-.53c-.26-.2-.59-.3-.92-.28v.03zM5.39 21.9l.26-.27 1.97 2.03-2.86 2.8-1.9-1.97.26-.26 1.62 1.66.97-.99-1.41-1.47.27-.26 1.45 1.48 1.06-1.03-1.7-1.73zm-4.25-2.25.14-.8.27.05-.16.8.77-.27.09.25-.77.26.63.54-.18.2-.61-.57-.15.81-.27-.05.16-.8-.77.27-.08-.23.76-.26-.63-.54.19-.2.61.54z"/></symbol><symbol id="mail" viewBox="0 0 32 32"><path fill="none" stroke="var(--color2, #9da4bd)" stroke-linejoin="round" stroke-linecap="round" stroke-width="1.33" d="M6.4 6.67h19.2C26.92 6.67 28 7.72 28 9v14a2.37 2.37 0 0 1-2.4 2.33H6.4A2.37 2.37 0 0 1 4 23V9a2.37 2.37 0 0 1 2.4-2.33z"/><path fill="none" stroke="var(--color2, #9da4bd)" stroke-linejoin="round" stroke-linecap="round" stroke-width="1.33" d="m26.67 9.33-10.67 8-10.67-8"/></symbol><symbol id="map-pin" viewBox="0 0 32 32"><path fill="none" stroke="var(--color2, #9da4bd)" stroke-linejoin="round" stroke-linecap="round" stroke-width="1.33" d="M26.67 13.82C26.67 21.45 16 28 16 28S5.33 21.46 5.33 13.82C5.33 8.4 10.11 4 16 4s10.67 4.4 10.67 9.82v0z"/><path fill="none" stroke="var(--color2, #9da4bd)" stroke-linejoin="round" stroke-linecap="round" stroke-width="1.33" d="M16 18.67a4 4 0 1 0 0-8 4 4 0 0 0 0 8z"/></symbol><symbol id="phone" viewBox="0 0 32 32"><path fill="none" stroke="var(--color2, #9da4bd)" stroke-linejoin="round" stroke-linecap="round" stroke-width="1.33" d="M26.67 21.34v3.21a2.15 2.15 0 0 1-2.34 2.15 21.24 21.24 0 0 1-9.26-3.3 20.91 20.91 0 0 1-6.44-6.43 21.22 21.22 0 0 1-3.29-9.3 2.14 2.14 0 0 1 2.14-2.34h3.21c1.08 0 2 .78 2.15 1.85.13 1.03.39 2.04.75 3.01.3.79.1 1.67-.48 2.26l-1.37 1.37a17.16 17.16 0 0 0 6.44 6.43l1.36-1.36c.6-.59 1.48-.78 2.27-.48.97.36 1.98.61 3.01.75a2.14 2.14 0 0 1 1.84 2.18z"/></symbol><symbol id="twitter" viewBox="0 0 32 32"><path d="M32 6.08c-1.19.52-2.46.87-3.78 1.03a6.52 6.52 0 0 0 2.89-3.62 13.11 13.11 0 0 1-4.16 1.59 6.57 6.57 0 0 0-11.2 5.98A18.57 18.57 0 0 1 2.23 4.2a6.57 6.57 0 0 0 2.02 8.77 6.48 6.48 0 0 1-2.97-.81v.07a6.59 6.59 0 0 0 5.26 6.44 6.55 6.55 0 0 1-2.97.1 6.62 6.62 0 0 0 6.13 4.58 13.18 13.18 0 0 1-9.7 2.7A18.47 18.47 0 0 0 10.06 29c12.08 0 18.68-10 18.68-18.67 0-.29-.01-.57-.03-.85 1.3-.92 2.4-2.07 3.29-3.4z"/></symbol></defs></svg>